<?xml version="1.0" encoding="UTF-8"?>
<svg id="Ebene_2" data-name="Ebene 2" xmlns="http://www.w3.org/2000/svg" viewBox="0 0 151.98 151.98">
  <defs>
    <style>
      .cls-1, .cls-2, .cls-3, .cls-4 {
        fill: #4f5d23;
      }

      .cls-1, .cls-2, .cls-5 {
        stroke: #4f5d23;
      }

      .cls-1, .cls-2, .cls-5, .cls-4, .cls-6 {
        stroke-miterlimit: 10;
      }

      .cls-2 {
        stroke-width: 3px;
      }

      .cls-5 {
        stroke-width: 6px;
      }

      .cls-5, .cls-7, .cls-6 {
        fill: #fff;
      }

      .cls-4 {
        stroke: #4e5d22;
      }

      .cls-6 {
        stroke: #fff;
      }
    </style>
  </defs>
  <g id="Logo_grafische_Elemente">
    <circle class="cls-5" cx="75.99" cy="75.99" r="72.99"/>
    <path class="cls-4" d="M38.72,90.81c-2.94-4.33-9.65-15.6-7.61-29.45,2.77-18.83,17.37-27.7,24.96-31.78,11.71-6.3,25-9.35,31.61-9.81,2,6.45,4.38,16.92,3.07,30.59-.98,10.22-3.71,27.2-17.89,36.53-13.94,9.18-30.33,4.99-34.14,3.91Z"/>
    <path class="cls-1" d="M36.06,93.41l-6.09,8.47c-.47.65-.31,1.55.35,2l.77.53c.63.43,1.5.28,1.95-.34l6.09-8.44c.46-.64.31-1.52-.32-1.98l-.77-.55c-.64-.46-1.52-.31-1.98.32Z"/>
    <path class="cls-6" d="M37.72,90.81l40.17-60.24c.43-.64,1.29-.82,1.94-.41l1.03.65c.67.43.86,1.32.42,1.98l-40.23,60.19-3.32-2.18Z"/>
    <circle class="cls-3" cx="133.06" cy="90.87" r="3.42"/>
    <circle class="cls-3" cx="104.85" cy="33.51" r="2.83"/>
    <path class="cls-2" d="M68.14,106.05c-10.48-10.92-6.02-26.86-5.59-28.29,4.27-14.34,17.72-21.34,26.68-24.06,15.56-4.72,30.05-6.49,38.17-5.3.89,7.71-1.12,21.66-4.99,34.95-2.75,9.43-10.48,24.24-24.58,28.94-.97.32-18.52,5.39-29.68-6.24Z"/>
    <path class="cls-6" d="M64.91,106.13l49.46-48.27c.52-.5,1.33-.54,1.89-.08l1.08.89c.65.53.7,1.52.09,2.11l-49.5,48.5c-.57.56-1.48.54-2.03-.04l-1.05-1.12c-.53-.56-.51-1.44.04-1.98Z"/>
    <path class="cls-7" d="M57.72,52.08c.71-.31,1.04-1.13.74-1.85l-3.47-8.23c-.33-.71-1.18-1.01-1.89-.68l-.99.47c-.7.33-1,1.16-.69,1.86l3.52,8.09c.31.72,1.15,1.05,1.86.74l.92-.4Z"/>
    <path class="cls-7" d="M48.37,64.48c.71-.31,1.04-1.13.74-1.85l-3.47-8.23c-.33-.71-1.18-1.01-1.89-.68l-.99.47c-.7.33-1,1.16-.69,1.86l3.52,8.09c.31.72,1.15,1.05,1.86.74l.92-.4Z"/>
    <path class="cls-7" d="M89.88,76.07c.71-.31,1.04-1.13.74-1.85l-3.47-8.23c-.33-.71-1.18-1.01-1.89-.68l-.99.47c-.7.33-1,1.16-.69,1.86l3.52,8.09c.31.72,1.15,1.05,1.86.74l.92-.4Z"/>
    <path class="cls-7" d="M79.72,86.29c.71-.31,1.04-1.13.74-1.85l-3.47-8.23c-.33-.71-1.18-1.01-1.89-.68l-.99.47c-.7.33-1,1.16-.69,1.86l3.52,8.09c.31.72,1.15,1.05,1.86.74l.92-.4Z"/>
    <path class="cls-7" d="M99.46,86.22c-.29.72.06,1.54.78,1.84l8.26,3.4c.74.27,1.55-.11,1.82-.85l.37-1.03c.26-.72-.1-1.53-.82-1.8l-8.19-3.27c-.73-.29-1.55.06-1.84.79l-.37.93Z"/>
    <path class="cls-7" d="M88.74,95.09c-.29.72.06,1.54.78,1.84l8.26,3.4c.74.27,1.55-.11,1.82-.85l.37-1.03c.26-.72-.1-1.53-.82-1.8l-8.19-3.27c-.73-.29-1.55.06-1.84.79l-.37.93Z"/>
    <circle class="cls-7" cx="24.06" cy="127.47" r="2.01"/>
    <path class="cls-1" d="M63.56,107.71l-9.9,9.36c-.57.54-.59,1.44-.05,2.01l.76.8c.53.56,1.41.59,1.98.07l10.07-9.14c.58-.53.62-1.42.1-2l-.92-1.02c-.53-.59-1.45-.63-2.02-.08Z"/>
    <circle class="cls-7" cx="3.04" cy="79.69" r="2.01"/>
    <circle class="cls-7" cx="21" cy="27.29" r="2.01"/>
    <circle class="cls-3" cx="84.75" cy="129.59" r="4.77"/>
  </g>
</svg>